<?xml version="1.0" encoding="UTF-8"?><svg id="Botones" xmlns="http://www.w3.org/2000/svg" viewBox="0 0 125.53 125.53"><defs><style>.cls-1{fill:#161615;}</style></defs><path id="Trazado_4362" class="cls-1" d="M114.55,50.51c-11.97-12.06-24-24.09-36.07-36.07-3.54-3.87-9.55-4.14-13.42-.6-.25,.23-.49,.47-.71,.72-14.58,14.55-29.13,29.07-43.62,43.71-1.74,1.79-3.17,3.86-4.21,6.12-3.62,7.84-1.79,17.13,4.55,23.01,6.58,6.67,13.25,13.25,20.34,20.34h-2.94c-8.94,0-17.85-.03-26.8,0-2.58,0-3.73,1.09-3.73,3.33,.03,2.15,1.09,3.09,3.67,3.09,15.06,.03,30.14,.03,45.22,0,5.14,.02,10.08-2.05,13.67-5.73,14.67-14.61,29.32-29.26,43.95-43.95,3.88-3.5,4.19-9.48,.69-13.37-.19-.21-.39-.41-.6-.61m-58.74,57.23c-3.25-.04-6.37-1.31-8.73-3.55-7.46-7.37-14.94-14.73-22.25-22.28-4.73-4.99-4.97-12.74-.55-18,1.46-1.62,3.01-3.16,4.64-4.61,13.61,13.64,27.13,27.16,40.74,40.77-3.61,4.18-7.55,7.97-13.85,7.67m54.01-47.71c-11.67,11.73-23.34,23.43-35.01,35.1-13.73-13.76-27.31-27.34-40.95-40.98,6.82-6.85,13.79-13.79,20.76-20.76,4.67-4.64,9.31-9.31,13.94-13.91,2.12-2.12,3.7-2.12,5.85,.03,11.7,11.7,23.41,23.41,35.13,35.13,1.91,1.91,2.03,3.64,.27,5.4"/></svg>