<?xml version="1.0" encoding="UTF-8"?><svg id="Botones" xmlns="http://www.w3.org/2000/svg" viewBox="0 0 125.53 125.53"><defs><style>.cls-1{fill:#1d1d1b;}</style></defs><path class="cls-1" d="M62.98,11.35c13.85,0,27.69,0,41.54,0,7.78,0,13.08,5.26,13.08,12.98,0,25.62,0,51.25,0,76.87,0,7.63-5.29,12.97-12.87,12.97-27.98,.01-55.96,.01-83.94,0-7.58,0-12.87-5.34-12.87-12.97,0-25.62,0-51.25,0-76.87,0-7.72,5.31-12.97,13.09-12.98,13.99,0,27.98,0,41.97,0Zm.64,91.3c12.34,0,24.69,.04,37.03-.06,1.27-.01,3.15-.52,3.64-1.41,.48-.87-.11-2.75-.81-3.79-4.06-6.03-8.26-11.97-12.46-17.9-2.31-3.25-5.28-3.5-8.12-.75-1.64,1.59-3.16,3.3-4.84,4.84-2.59,2.37-5.58,2.12-7.86-.55-.46-.54-.89-1.12-1.32-1.68-6.24-8.16-12.45-16.33-18.71-24.47-2.87-3.74-5.26-3.54-7.36,.6-6.6,13.02-13.17,26.05-19.74,39.08-2.06,4.09-.82,6.1,3.75,6.1,12.27,.01,24.54,0,36.82,0Zm3.32-60.79c.03,6.63,5.36,11.93,11.97,11.91,6.58-.02,11.91-5.42,11.87-12.03-.04-6.6-5.43-11.97-11.99-11.93-6.57,.04-11.88,5.44-11.85,12.05Z"/></svg>