<?xml version="1.0" encoding="UTF-8"?><svg id="Botones" xmlns="http://www.w3.org/2000/svg" viewBox="0 0 125.53 125.53"><defs><style>.cls-1{fill:#1d1d1b;}</style></defs><path class="cls-1" d="M97.32,12.44h15.73v15.8c-1.13,0-2.28,.05-3.43-.01-1.12-.07-1.57,.39-1.46,1.49,.04,.39,0,.79,0,1.18,0,21.26,0,42.52,0,63.79q0,2.66,2.63,2.66c.71,0,1.43,0,2.26,0v15.73h-15.74c0-1.13-.05-2.28,.01-3.43,.07-1.12-.39-1.57-1.49-1.46-.39,.04-.79,0-1.18,0-21.26,0-42.52,0-63.79,0q-2.66,0-2.66,2.63c0,.71,0,1.43,0,2.26H12.48v-15.74c1.13,0,2.28-.05,3.43,.01,1.12,.07,1.57-.39,1.46-1.49-.04-.39,0-.79,0-1.18,0-21.26,0-42.52,0-63.79q0-2.66-2.63-2.66c-.71,0-1.43,0-2.26,0V12.51h15.74c0,1.13,.05,2.28-.01,3.43-.07,1.12,.39,1.57,1.49,1.46,.39-.04,.79,0,1.18,0,21.26,0,42.52,0,63.79,0q2.66,0,2.66-2.63c0-.71,0-1.43,0-2.32ZM23.45,28.29V97.38h4.77v4.71H97.38v-4.78h4.74V28.21h-4.87v-4.74H28.31c-.08,1.64-.15,3.17-.22,4.83h-4.64Z"/><path class="cls-1" d="M31.4,31.19h27.35v62.96H31.4V31.19Z"/><path class="cls-1" d="M66.99,66.41h27.36v27.79h-27.36v-27.79Z"/><path class="cls-1" d="M94.29,58.89h-27.32V31.23h27.32v27.66Z"/></svg>