<?xml version="1.0" encoding="UTF-8"?><svg id="Botones" xmlns="http://www.w3.org/2000/svg" viewBox="0 0 125.53 125.53"><defs><style>.cls-1{fill:#1d1d1b;}</style></defs><path class="cls-1" d="M48.16,74.8c.48-.7,.82-1.42,1.35-1.95,14.95-14.98,29.92-29.95,44.89-44.91,4.19-4.19,8.19-4.18,12.39,.02,.85,.85,1.72,1.69,2.56,2.57,3.06,3.21,3.07,7.54-.05,10.73-3.16,3.23-6.37,6.39-9.56,9.58-15.86,15.87-31.73,31.73-47.6,47.59-3.06,3.06-5.6,3.06-8.67,0-8.86-8.85-17.71-17.7-26.56-26.56-4.01-4.01-4.01-8.13-.04-12.12,.81-.81,1.61-1.63,2.43-2.43,3.54-3.44,7.79-3.46,11.29,0,5.28,5.24,10.52,10.51,15.78,15.77,.44,.44,.9,.86,1.79,1.7Z"/></svg>