<?xml version="1.0" encoding="UTF-8"?><svg id="Botones" xmlns="http://www.w3.org/2000/svg" viewBox="0 0 125.53 125.53"><defs><style>.cls-1{fill:#1d1d1b;}</style></defs><path class="cls-1" d="M34.04,90.89c-2.31,0-3.75-1.51-3.33-3.66,1.71-8.78,3.47-17.55,5.31-26.3,.2-.95,.88-1.92,1.58-2.62C54.83,41.02,72.1,23.76,89.37,6.5c2.21-2.2,3.52-2.21,5.74,0,6.68,6.65,13.33,13.31,19.98,19.98,2.16,2.17,2.17,3.63,.03,5.77-17.26,17.27-34.52,34.54-51.81,51.77-.76,.76-1.82,1.46-2.85,1.68-8.46,1.77-16.95,3.41-25.43,5.08-.37,.07-.75,.07-1,.1Zm7.55-26.66c-.6,2.94-.96,5.87-1.83,8.64-1.1,3.5-.57,6.24,2.57,8.32,.72,.48,1.52,1.48,2.13,1.37,4.33-.72,8.62-1.67,12.9-2.55-5.3-5.3-10.44-10.45-15.77-15.79Z"/><path class="cls-1" d="M8.81,108.45c.04-5.24,2.86-9,6.89-11.8,2.68-1.86,5.79-3.12,8.76-4.56,1.76-.85,3.18-.19,3.83,1.56,.64,1.72,.2,3.11-1.62,4.13-3.25,1.82-6.59,3.59-9.48,5.9-2.77,2.22-2.98,4.65-1.56,7.22,1.32,2.39,3.81,3.42,7.02,2.78,5.62-1.12,10.71-3.51,15.3-6.9,6.76-4.99,13.73-9.6,22.05-11.5,14.63-3.35,27.94-.63,39.45,9.27,3.65,3.14,6.06,7.25,7.71,11.78,.78,2.16,.37,3.36-1.41,4.08-1.75,.71-3.21-.03-4.26-1.81-1.83-3.08-3.43-6.4-5.78-9.05-5.06-5.72-12.11-7.54-19.34-8.73-10.58-1.74-20.13,.71-28.83,6.89-5.88,4.18-11.72,8.48-18.78,10.6-4.02,1.21-8.09,1.82-12.22,.57-4.91-1.49-7.72-5.35-7.72-10.44Z"/></svg>