<?xml version="1.0" encoding="UTF-8"?><svg id="Botones" xmlns="http://www.w3.org/2000/svg" viewBox="0 0 125.53 125.53"><path id="_79a43e5587bd115f8278bba36515006b" d="M23.72,13.83c-5.39,.03-9.75,4.39-9.78,9.78,.03,4.09,2.58,7.73,6.42,9.14v60.04c-5.06,1.84-7.68,7.44-5.83,12.5,1.4,3.86,5.08,6.43,9.19,6.42,4.12-.03,7.79-2.63,9.17-6.52h59.76c1.79,5.08,7.36,7.74,12.44,5.95s7.74-7.36,5.95-12.44c-.98-2.78-3.17-4.97-5.95-5.95V32.89c3.88-1.38,6.49-5.04,6.52-9.16,.02-5.38-4.32-9.77-9.7-9.79-4.16-.02-7.88,2.6-9.25,6.53H32.91c-1.34-3.95-5.03-6.61-9.2-6.65Zm0,6.52c1.81-.01,3.29,1.45,3.3,3.26s-1.45,3.29-3.26,3.3-3.29-1.45-3.3-3.26c0-.01,0-.03,0-.04-.03-1.77,1.39-3.23,3.16-3.26,.03,0,.06,0,.1,0Zm78.1,.13c1.81-.01,3.29,1.45,3.3,3.26,.01,1.81-1.45,3.29-3.26,3.3-1.81,.01-3.29-1.45-3.3-3.26,0-.01,0-.03,0-.04-.03-1.77,1.39-3.23,3.16-3.26,.03,0,.06,0,.1,0Zm-68.97,6.53h59.8c1,2.74,3.16,4.91,5.91,5.9v59.85c-2.75,.99-4.92,3.16-5.91,5.92H32.88c-1-2.79-3.21-4.98-6.01-5.96V32.8c2.75-.96,4.93-3.08,5.97-5.8Zm7.11,13.07v.03l-.05,16.04h6.52l.04-9.54h13.08l-.07,38.99-6.53-.03-.03,6.52,19.63,.07,.02-6.52-6.58-.03,.06-39h12.95v9.53h6.49l.04-16.06H39.95Zm-16.24,58.59c1.81-.01,3.29,1.45,3.3,3.26,.01,1.81-1.45,3.29-3.26,3.3-1.81,.01-3.29-1.45-3.3-3.26,0-.01,0-.03,0-.04-.02-1.78,1.4-3.23,3.18-3.25,.03,0,.06,0,.09,0h0Zm78.09,0c1.81-.01,3.29,1.45,3.3,3.26s-1.45,3.29-3.26,3.3c-1.81,.01-3.29-1.45-3.3-3.26,0-.01,0-.03,0-.04-.03-1.77,1.39-3.23,3.16-3.25,.03,0,.07,0,.1,0h0Z"/></svg>