<?xml version="1.0" encoding="UTF-8"?><svg id="Botones" xmlns="http://www.w3.org/2000/svg" viewBox="0 0 125.53 125.53"><path id="b599627c7f6629d3534b2a28fd8dc4de" d="M48.06,43.57l10.24-10.28v42.87c0,2.47,2,4.47,4.47,4.47s4.47-2,4.47-4.47V33.29l10.24,10.28c1.75,1.75,4.59,1.75,6.35,0,1.75-1.75,1.75-4.59,0-6.35l-17.88-17.88c-1.78-1.68-4.57-1.68-6.35,0l-17.88,17.88c-1.75,1.75-1.75,4.59,0,6.35,1.75,1.75,4.59,1.75,6.35,0h0Zm54.94,19.18c-2.47,0-4.47,2-4.47,4.47v26.82c0,2.47-2,4.47-4.47,4.47H31.47c-2.47,0-4.47-2-4.47-4.47v-26.82c0-2.47-2-4.47-4.47-4.47s-4.47,2-4.47,4.47v26.82c0,7.41,6,13.41,13.41,13.41h62.58c7.41,0,13.41-6,13.41-13.41v-26.82c0-2.47-2-4.47-4.47-4.47Z"/></svg>