<?xml version="1.0" encoding="UTF-8"?><svg id="Botones" xmlns="http://www.w3.org/2000/svg" viewBox="0 0 125.53 125.53"><defs><style>.cls-1{fill:#1d1d1b;}</style></defs><path class="cls-1" d="M11.33,83.99c.45,1.08,.75,2,1.19,2.83,1.91,3.52,4.92,5.47,8.88,5.48,19.21,.07,38.42,.06,57.62,.01,4.5,0,8.68-3.29,9.71-7.7,.23-.99,.35-2.03,.38-3.06,.06-2.13,.01-4.26,.02-6.4,0-.33,.03-.67,.05-1,.09-.06,.19-.12,.28-.18,1.53,1.59,3.04,3.21,4.59,4.78,2.73,2.76,5.47,5.5,8.23,8.23,3.61,3.55,9.2,2.58,11.37-1.97,.16-.35,.26-.72,.55-1.04V41.85c-.4-.87-.63-1.63-1.06-2.25-2.65-3.86-7.52-4.33-10.86-1.04-4.11,4.04-8.16,8.13-12.23,12.19-.23,.23-.48,.45-.86,.8-.03-.53-.06-.87-.06-1.2,0-2.29,0-4.58,0-6.87-.03-4.32-2.9-8.37-6.98-9.73-1-.33-2.08-.53-3.13-.54-19.2-.03-38.41-.04-57.61,0-4.58,0-8.78,3.33-9.79,7.85-.02,.09-.08,.16-.12,.24-.06,0-.11,0-.17,0m49.04,23.99c-2.42,2.02-4.97,3.89-7.47,5.82-2.2,1.7-4.4,3.41-6.62,5.09-1.17,.89-2.44,1.3-3.84,.53-1.26-.69-1.89-1.73-1.88-3.21,.03-3.6,.01-7.21,.01-10.82s-.01-7.15,0-10.73c0-1.74,.8-2.78,2.42-3.37,1.17-.43,2.19-.06,3.08,.62,4.11,3.11,8.19,6.27,12.28,9.41,.67,.51,1.36,1.01,1.98,1.58,1.64,1.48,1.71,3.65,.02,5.07Z"/></svg>